<svg width="280" height="114" viewBox="0 0 280 114" fill="none" xmlns="http://www.w3.org/2000/svg">
<path d="M0 -25C0 -31.6274 5.37258 -37 12 -37H268C274.627 -37 280 -31.6274 280 -25V102C280 108.627 274.627 114 268 114H206.126C195.444 114 184.832 112.289 174.691 108.931L165.148 105.771C148.819 100.363 131.181 100.363 114.852 105.771L105.309 108.931C95.1685 112.289 84.5555 114 73.8736 114H12C5.37258 114 0 108.627 0 102V-25Z" fill="#303030" fill-opacity="0.5"/>
<path d="M77.9475 79.8391C77.4856 79.8391 77.0884 79.7329 76.7558 79.5204C76.4279 79.308 76.1784 79.0123 76.0075 78.6336C75.8366 78.2548 75.7512 77.8252 75.7512 77.3449C75.7512 76.8645 75.8366 76.4349 76.0075 76.0561C76.1831 75.6728 76.4348 75.3748 76.7628 75.1624C77.0953 74.9453 77.4903 74.8367 77.9475 74.8367C78.4002 74.8367 78.7905 74.9453 79.1185 75.1624C79.4464 75.3748 79.6959 75.6705 79.8668 76.0492C80.0377 76.428 80.1231 76.8622 80.1231 77.3518C80.1231 77.8368 80.0377 78.2664 79.8668 78.6405C79.6959 79.0146 79.4464 79.308 79.1185 79.5204C78.7905 79.7329 78.4002 79.8391 77.9475 79.8391ZM77.9406 79.2849C78.2593 79.2849 78.5365 79.204 78.772 79.0424C79.0076 78.8761 79.1878 78.6451 79.3125 78.3495C79.4372 78.0539 79.4995 77.7167 79.4995 77.3379C79.4995 76.9592 79.4372 76.622 79.3125 76.3264C79.1878 76.0307 79.0076 75.7998 78.772 75.6335C78.5365 75.4672 78.2593 75.3841 77.9406 75.3841C77.6219 75.3841 77.3448 75.4695 77.1092 75.6404C76.8736 75.8067 76.6935 76.0377 76.5688 76.3333C76.444 76.6289 76.3817 76.9638 76.3817 77.3379C76.3817 77.7167 76.444 78.0539 76.5688 78.3495C76.6935 78.6405 76.8736 78.8691 77.1092 79.0354C77.3448 79.2017 77.6219 79.2849 77.9406 79.2849ZM83.1256 74.9406H83.7977L86.3959 78.8345H86.4236V74.9406H87.0125V79.7906H86.3335L83.7423 75.9522H83.7145V79.7906H83.1256V74.9406ZM93.0735 79.2502V79.7906H90.212V74.9406H90.8148L90.8078 79.2502H93.0735ZM96.0133 74.9406H96.616V79.7906H96.0133V74.9406ZM99.8378 74.9406H100.51L103.108 78.8345H103.136V74.9406H103.725V79.7906H103.046L100.454 75.9522H100.427V79.7906H99.8378V74.9406ZM107.527 75.4811V77.0746H109.626V77.5596H107.527V79.2502H109.91V79.7906H106.924V74.9406H109.91V75.4811H107.527ZM116.692 74.9406H118.466C118.9 74.9406 119.279 75.04 119.602 75.2386C119.93 75.4326 120.182 75.712 120.357 76.0769C120.537 76.4372 120.628 76.8645 120.628 77.3587C120.628 77.853 120.537 78.2848 120.357 78.6544C120.182 79.0193 119.93 79.301 119.602 79.4996C119.274 79.6936 118.893 79.7906 118.459 79.7906H116.692V74.9406ZM118.376 79.2364C118.865 79.2364 119.258 79.077 119.554 78.7583C119.849 78.435 119.997 77.9684 119.997 77.3587C119.997 76.749 119.849 76.2848 119.554 75.9661C119.263 75.6427 118.87 75.4811 118.376 75.4811H117.274V79.2364H118.376ZM125.024 77.8576H124.158V79.7906H123.562V74.9406H125.211C125.604 74.9406 125.925 75.0122 126.174 75.1554C126.428 75.2986 126.611 75.4811 126.721 75.7028C126.832 75.9245 126.888 76.1578 126.888 76.4026C126.888 76.7398 126.786 77.0423 126.583 77.3102C126.384 77.5781 126.072 77.749 125.647 77.8229L126.929 79.7906H126.271L125.024 77.8576ZM124.158 77.3449H125.135C125.463 77.3449 125.74 77.2733 125.966 77.1301C126.193 76.9869 126.306 76.7444 126.306 76.4026C126.306 76.0654 126.193 75.8275 125.966 75.6889C125.74 75.5504 125.463 75.4811 125.135 75.4811H124.158V77.3449ZM130.006 74.9406H130.609V79.7906H130.006V74.9406ZM133.361 74.9406H133.97L135.439 79.1879H135.481L136.95 74.9406H137.552L135.876 79.7906H135.044L133.361 74.9406ZM140.369 74.9406H140.972V79.7906H140.369V74.9406ZM144.194 74.9406H144.866L147.464 78.8345H147.492V74.9406H148.081V79.7906H147.402L144.811 75.9522H144.783V79.7906H144.194V74.9406ZM153.187 79.8391C152.711 79.8391 152.316 79.7191 152.002 79.4789C151.688 79.2341 151.455 78.9223 151.302 78.5435C151.154 78.1647 151.081 77.7652 151.081 77.3449C151.081 76.9199 151.157 76.5181 151.309 76.1393C151.462 75.7559 151.699 75.4441 152.023 75.2039C152.346 74.9591 152.75 74.8367 153.235 74.8367C153.776 74.8367 154.212 74.9845 154.545 75.2801C154.882 75.5711 155.115 75.9384 155.245 76.3818H154.614C154.522 76.0677 154.36 75.8229 154.129 75.6474C153.898 75.4718 153.6 75.3841 153.235 75.3841C152.75 75.3841 152.372 75.5596 152.099 75.9106C151.826 76.2617 151.69 76.7421 151.69 77.3518C151.69 77.9707 151.829 78.4557 152.106 78.8068C152.388 79.1578 152.773 79.3334 153.263 79.3334C153.554 79.3334 153.803 79.2733 154.011 79.1532C154.224 79.0285 154.385 78.8599 154.496 78.6474C154.612 78.435 154.672 78.1948 154.676 77.9269L154.683 77.7329H153.325V77.2825H155.245V79.7906H154.767V78.9869H154.711C154.683 79.0562 154.621 79.1555 154.524 79.2849C154.427 79.4096 154.265 79.5343 154.039 79.659C153.817 79.7791 153.533 79.8391 153.187 79.8391ZM163.616 79.8461C163.242 79.8461 162.921 79.7699 162.653 79.6174C162.39 79.4604 162.191 79.2595 162.057 79.0146C161.923 78.7698 161.856 78.5135 161.856 78.2456V78.2109H162.515V78.2456C162.515 78.4072 162.552 78.5689 162.626 78.7306C162.704 78.8922 162.826 79.0285 162.993 79.1394C163.159 79.2456 163.371 79.2987 163.63 79.2987C163.935 79.2987 164.187 79.2202 164.385 79.0631C164.584 78.9061 164.683 78.6936 164.683 78.4257C164.683 78.204 164.609 78.0285 164.462 77.8991C164.318 77.7652 164.134 77.6751 163.907 77.6289L163.201 77.4973C162.388 77.3171 161.981 76.8899 161.981 76.2155C161.981 75.9384 162.048 75.6959 162.182 75.488C162.316 75.2801 162.501 75.1208 162.736 75.0099C162.977 74.8945 163.254 74.8367 163.568 74.8367C163.923 74.8367 164.228 74.9083 164.482 75.0515C164.736 75.1947 164.928 75.3818 165.057 75.6127C165.187 75.8391 165.251 76.0746 165.251 76.3194V76.3471H164.593V76.3264C164.593 76.1878 164.559 76.0469 164.489 75.9037C164.425 75.7559 164.314 75.6289 164.157 75.5226C164.004 75.4164 163.801 75.3633 163.547 75.3633C163.256 75.3633 163.023 75.4441 162.847 75.6058C162.676 75.7675 162.591 75.9684 162.591 76.2086C162.591 76.4118 162.658 76.5781 162.792 76.7074C162.926 76.8368 163.108 76.9245 163.339 76.9707L163.977 77.0954C164.868 77.2756 165.314 77.7121 165.314 78.4049C165.314 78.6867 165.242 78.9361 165.099 79.1532C164.96 79.3703 164.762 79.5412 164.503 79.6659C164.244 79.786 163.949 79.8461 163.616 79.8461ZM170.409 79.8391C169.956 79.8391 169.566 79.7329 169.238 79.5204C168.91 79.3033 168.658 79.0054 168.482 78.6266C168.312 78.2479 168.226 77.8183 168.226 77.3379C168.226 76.8576 168.312 76.428 168.482 76.0492C168.658 75.6705 168.91 75.3748 169.238 75.1624C169.566 74.9453 169.956 74.8367 170.409 74.8367C170.954 74.8367 171.404 74.9915 171.76 75.3009C172.115 75.6058 172.353 76.0192 172.473 76.5411H171.884C171.787 76.1855 171.61 75.9037 171.351 75.6959C171.092 75.4834 170.78 75.3771 170.416 75.3771C169.912 75.3771 169.526 75.555 169.258 75.9106C168.991 76.2617 168.857 76.7351 168.857 77.331C168.857 77.9315 168.991 78.4096 169.258 78.7652C169.526 79.1163 169.912 79.2918 170.416 79.2918C170.762 79.2918 171.06 79.1994 171.309 79.0146C171.559 78.8253 171.737 78.5735 171.843 78.2594H172.432C172.302 78.7398 172.062 79.1232 171.711 79.4096C171.365 79.696 170.931 79.8391 170.409 79.8391ZM179.076 74.9406V79.7906H178.473V77.5943H176.006V79.7906H175.41V74.9406H176.006V77.1093H178.473V74.9406H179.076ZM184.256 79.8391C183.794 79.8391 183.397 79.7329 183.064 79.5204C182.737 79.308 182.487 79.0123 182.316 78.6336C182.145 78.2548 182.06 77.8252 182.06 77.3449C182.06 76.8645 182.145 76.4349 182.316 76.0561C182.492 75.6728 182.743 75.3748 183.071 75.1624C183.404 74.9453 183.799 74.8367 184.256 74.8367C184.709 74.8367 185.099 74.9453 185.427 75.1624C185.755 75.3748 186.004 75.6705 186.175 76.0492C186.346 76.428 186.432 76.8622 186.432 77.3518C186.432 77.8368 186.346 78.2664 186.175 78.6405C186.004 79.0146 185.755 79.308 185.427 79.5204C185.099 79.7329 184.709 79.8391 184.256 79.8391ZM184.249 79.2849C184.568 79.2849 184.845 79.204 185.081 79.0424C185.316 78.8761 185.496 78.6451 185.621 78.3495C185.746 78.0539 185.808 77.7167 185.808 77.3379C185.808 76.9592 185.746 76.622 185.621 76.3264C185.496 76.0307 185.316 75.7998 185.081 75.6335C184.845 75.4672 184.568 75.3841 184.249 75.3841C183.931 75.3841 183.653 75.4695 183.418 75.6404C183.182 75.8067 183.002 76.0377 182.877 76.3333C182.753 76.6289 182.69 76.9638 182.69 77.3379C182.69 77.7167 182.753 78.0539 182.877 78.3495C183.002 78.6405 183.182 78.8691 183.418 79.0354C183.653 79.2017 183.931 79.2849 184.249 79.2849ZM191.485 79.8391C191.023 79.8391 190.625 79.7329 190.293 79.5204C189.965 79.308 189.716 79.0123 189.545 78.6336C189.374 78.2548 189.288 77.8252 189.288 77.3449C189.288 76.8645 189.374 76.4349 189.545 76.0561C189.72 75.6728 189.972 75.3748 190.3 75.1624C190.632 74.9453 191.027 74.8367 191.485 74.8367C191.937 74.8367 192.328 74.9453 192.656 75.1624C192.984 75.3748 193.233 75.6705 193.404 76.0492C193.575 76.428 193.66 76.8622 193.66 77.3518C193.66 77.8368 193.575 78.2664 193.404 78.6405C193.233 79.0146 192.984 79.308 192.656 79.5204C192.328 79.7329 191.937 79.8391 191.485 79.8391ZM191.478 79.2849C191.796 79.2849 192.074 79.204 192.309 79.0424C192.545 78.8761 192.725 78.6451 192.85 78.3495C192.974 78.0539 193.037 77.7167 193.037 77.3379C193.037 76.9592 192.974 76.622 192.85 76.3264C192.725 76.0307 192.545 75.7998 192.309 75.6335C192.074 75.4672 191.796 75.3841 191.478 75.3841C191.159 75.3841 190.882 75.4695 190.646 75.6404C190.411 75.8067 190.231 76.0377 190.106 76.3333C189.981 76.6289 189.919 76.9638 189.919 77.3379C189.919 77.7167 189.981 78.0539 190.106 78.3495C190.231 78.6405 190.411 78.8691 190.646 79.0354C190.882 79.2017 191.159 79.2849 191.478 79.2849ZM199.524 79.2502V79.7906H196.663V74.9406H197.266L197.259 79.2502H199.524Z" fill="white"/>
<path fill-rule="evenodd" clip-rule="evenodd" d="M120.6 44.0595C122.916 45.2433 122.906 45.1987 121.482 47.9532C120.238 50.3591 119.9 50.4571 117.94 48.975C115.994 47.5022 113.742 47.655 111.51 49.4109C108.829 51.5199 108.829 55.843 111.51 57.952C115.46 61.0589 117.822 59.793 122.351 52.1431C124.6 48.3467 126.789 45.636 128.562 44.4558C135.772 39.6585 145.643 44.9494 145.635 53.608C145.63 59.9486 141.024 64.4815 134.581 64.4865C131.267 64.4894 126.905 62.75 126.905 61.4264C126.905 60.9516 128.487 58.1019 129.576 56.6162C129.7 56.4468 130.204 56.8482 130.694 57.5075C132.293 59.6525 135.776 59.8023 138.076 57.8252C140.845 55.4424 140.878 51.9493 138.153 49.6047C134.134 46.1476 131.425 47.5937 126.706 55.7148C122.79 62.4539 119.782 64.7408 114.926 64.6674C108.792 64.5744 103.848 59.7692 103.848 53.8991C103.848 45.0596 112.552 39.9467 120.6 44.0595Z" fill="white"/>
<path d="M74.4179 65.4284C71.4061 65.4284 69.3295 64.5407 68.1882 62.7653C67.0786 60.99 66.5238 58.5171 66.5238 55.3468V43.1252H71.6597V54.0628C71.6597 55.8699 71.7548 57.2807 71.9451 58.2952C72.167 59.278 72.5791 60.0072 73.1815 60.4827C73.8156 60.9583 74.7508 61.196 75.9872 61.196C76.8749 61.196 77.7309 60.9424 78.5552 60.4352C79.3795 59.9279 80.0452 59.2463 80.5525 58.3903C81.0915 57.5026 81.3609 56.5356 81.3609 55.4894V43.1252H86.4493V64.9529H82.2645L81.6938 61.7667C80.9012 63.0031 79.9026 63.9225 78.6979 64.5249C77.5248 65.1272 76.0982 65.4284 74.4179 65.4284Z" fill="white"/>
<path d="M92.5679 47.31H89.437V43.1252H92.5679V34.2324L97.7514 34.2324V43.1252L101.686 43.1252V47.31L97.7514 47.31V64.9529H92.5679V47.31Z" fill="white"/>
<path d="M147.797 43.1251H152.838L152.885 47.1198C153.488 45.7882 154.439 44.6945 155.739 43.8385C157.038 42.9825 158.56 42.5545 160.304 42.5545C162.555 42.5545 164.283 43.03 165.487 43.9811C166.692 44.9005 167.501 46.2004 167.913 47.8806C168.325 49.5609 168.531 51.7484 168.531 54.4432V64.9528H163.395V54.5859C163.395 51.8277 163.125 49.8462 162.587 48.6415C162.048 47.4051 160.938 46.7869 159.258 46.7869C158.307 46.7869 157.34 47.0881 156.357 47.6904C155.374 48.2611 154.55 49.1012 153.884 50.2108C153.25 51.3204 152.933 52.6203 152.933 54.1103V64.9528H147.797V43.1251Z" fill="white"/>
<path d="M172.963 30H178.051V64.9528H172.963V30Z" fill="white"/>
<path d="M183.024 43.1251H188.35V64.9528H183.024V43.1251ZM185.64 39.0354C184.657 39.0354 183.833 38.7025 183.167 38.0368C182.501 37.371 182.168 36.5467 182.168 35.5639C182.168 34.6762 182.501 33.9154 183.167 33.2813C183.833 32.6472 184.657 32.3302 185.64 32.3302C186.591 32.3302 187.399 32.6472 188.065 33.2813C188.731 33.9154 189.064 34.6762 189.064 35.5639C189.064 36.5467 188.731 37.371 188.065 38.0368C187.431 38.7025 186.623 39.0354 185.64 39.0354Z" fill="white"/>
<path d="M192.846 43.1251H197.887L197.934 47.1198C198.537 45.7882 199.488 44.6945 200.788 43.8385C202.087 42.9825 203.609 42.5545 205.353 42.5545C207.604 42.5545 209.332 43.03 210.536 43.9811C211.741 44.9005 212.55 46.2004 212.962 47.8806C213.374 49.5609 213.58 51.7484 213.58 54.4432V64.9528H208.444V54.5859C208.444 51.8277 208.174 49.8462 207.635 48.6415C207.097 47.4051 205.987 46.7869 204.307 46.7869C203.356 46.7869 202.389 47.0881 201.406 47.6904C200.423 48.2611 199.599 49.1012 198.933 50.2108C198.299 51.3204 197.982 52.6203 197.982 54.1103V64.9528H192.846V43.1251Z" fill="white"/>
<path d="M57.6675 43.1252V45.5087C59.921 47.552 61.3364 50.5031 61.3364 53.7847C61.3364 57.0431 59.9409 59.9757 57.715 62.0173V64.9529H62.5656V43.1252H57.6675Z" fill="white"/>
<path fill-rule="evenodd" clip-rule="evenodd" d="M57.715 62.0173C59.9409 59.9757 61.3364 57.0431 61.3364 53.7847C61.3364 50.5031 59.921 47.552 57.6675 45.5087C57.5384 45.3917 57.4066 45.2777 57.2722 45.1668C55.3417 43.5735 52.8667 42.6165 50.1682 42.6165C44.0002 42.6165 39 47.6167 39 53.7847C39 59.9527 44.0002 64.9529 50.1682 64.9529C53.0778 64.9529 55.7274 63.8403 57.715 62.0173ZM50.1682 59.9092C53.5507 59.9092 56.2927 57.1671 56.2927 53.7847C56.2927 50.4022 53.5507 47.6602 50.1682 47.6602C46.7857 47.6602 44.0437 50.4022 44.0437 53.7847C44.0437 57.1671 46.7857 59.9092 50.1682 59.9092Z" fill="white"/>
<path d="M228.859 65.6734C222.293 65.6734 216.97 60.3506 216.97 53.7847C216.97 47.2187 222.293 41.8959 228.859 41.8959C235.425 41.8959 240.748 47.2187 240.748 53.7847C240.748 54.65 240.655 55.4937 240.48 56.3065H235.225C235.534 55.5261 235.704 54.6752 235.704 53.7847C235.704 53.1612 235.621 52.5573 235.465 51.9833C234.674 49.0768 232.016 46.9396 228.859 46.9396C225.702 46.9396 223.044 49.0768 222.254 51.9833C222.098 52.5573 222.014 53.1612 222.014 53.7847C222.014 54.6752 222.184 55.5261 222.494 56.3065C223.498 58.8389 225.969 60.6297 228.859 60.6297C230.828 60.6297 232.602 59.7986 233.851 58.4681H239.79C237.972 62.7054 233.762 65.6734 228.859 65.6734Z" fill="white"/>
<path d="M235.225 56.3065C235.534 55.5261 235.704 54.6752 235.704 53.7847C235.704 53.1612 235.621 52.5573 235.465 51.9833H222.254C222.098 52.5573 222.014 53.1612 222.014 53.7847C222.014 54.6752 222.184 55.5261 222.494 56.3065H235.225Z" fill="white"/>
</svg>
